<?xml version="1.0" encoding="UTF-8" standalone="no"?>
<svg width="800px" height="264px" viewBox="0 0 800 264" version="1.1" xmlns="http://www.w3.org/2000/svg" xmlns:xlink="http://www.w3.org/1999/xlink" xmlns:sketch="http://www.bohemiancoding.com/sketch/ns">
    <!-- Generator: Sketch 3.3.3 (12081) - http://www.bohemiancoding.com/sketch -->
    <title>Artboard 1</title>
    <desc>Created with Sketch.</desc>
    <defs></defs>
    <g id="Page-1" stroke="none" stroke-width="1" fill="none" fill-rule="evenodd" sketch:type="MSPage">
        <g id="Artboard-1" sketch:type="MSArtboardGroup">
            <g id="Imported-Layers" sketch:type="MSLayerGroup" transform="translate(121.000000, 19.000000)">
                <path d="M450.047,45.533 C450.303,44.977 450.546,44.423 450.815,43.889 C450.325,43.912 449.834,43.937 449.344,43.961 C449.566,44.495 449.786,45.03 450.047,45.533" id="Fill-1" fill="#FFFFFF" sketch:type="MSShapeGroup"></path>
                <path d="M488.052,27.086 C492.415,35.096 494.971,43.355 498.045,51.889 C498.58,53.374 499.147,54.835 499.73,56.285 C502.39,51.757 505.235,47.247 507.037,42.3 C507.026,42.331 508.168,39.598 508.006,39.305 C507.658,38.675 502.639,40.01 501.788,40.081 C500.886,40.157 499.347,40.543 498.487,39.969 C495.76,38.152 497.598,31.904 497.788,29.206 C497.981,26.479 498.571,23.814 498.777,21.102 C498.783,21.019 498.992,18.276 498.854,18.165 C498.402,17.802 495.622,18.509 495.131,18.565 C492.648,18.846 487.523,20.941 485.406,18.672 C483.929,17.087 483.658,8.467 482.16,8.569 C479.607,8.742 477.717,14.04 474.507,12.339 C472.564,11.31 472.315,7.366 472.104,4.454 C470.839,5.976 469.752,7.715 468.716,9.301 C467.935,10.494 467.253,11.938 466.39,13.185 C468.731,13.613 471.015,14.302 473.144,15.23 C479.432,17.971 484.715,20.959 488.052,27.086" id="Fill-2" fill="#FFFFFF" sketch:type="MSShapeGroup"></path>
                <path d="M524.61,95.599 C526.779,97.992 528.68,100.78 530.793,103.271 C530.345,101.276 531.513,99.311 531.957,97.334 C532.368,95.508 533.864,90.029 532.666,88.48 C531.038,86.373 524.398,90.878 521.489,88.531 C521.157,88.263 521.054,87.706 521.168,87.315 C522.031,84.364 522.174,81.797 522.007,78.738 C521.926,77.257 522.579,72.741 521.466,71.679 C519.143,69.465 513.002,74.626 510.382,71.968 C508.023,69.574 512.348,62.77 512.992,60.297 C513.175,59.856 513.358,59.415 513.541,58.974 C513.982,57.573 513.622,57.139 512.462,57.672 C511.358,57.399 509.441,58.249 508.263,58.455 C505.84,58.878 503.444,59.381 500.994,59.314 C506.783,72.699 514.687,84.649 524.61,95.599" id="Fill-3" fill="#FFFFFF" sketch:type="MSShapeGroup"></path>
                <path d="M434.783,44.707 C434.843,44.563 434.908,44.423 434.977,44.288 C434.855,44.284 434.734,44.283 434.613,44.278 C434.67,44.418 434.726,44.562 434.783,44.707" id="Fill-4" fill="#FFFFFF" sketch:type="MSShapeGroup"></path>
                <path d="M444.332,45.761 C444.535,45.38 444.827,44.778 445.136,44.154 C444.573,44.178 444.011,44.202 443.448,44.221 C443.907,44.775 444.297,45.37 444.332,45.761" id="Fill-5" fill="#FFFFFF" sketch:type="MSShapeGroup"></path>
                <path d="M430.706,44.745 C430.929,44.461 431.158,44.184 431.401,43.917 C431.074,43.852 430.752,43.781 430.443,43.694 C430.52,44.047 430.609,44.401 430.706,44.745" id="Fill-6" fill="#FFFFFF" sketch:type="MSShapeGroup"></path>
                <path d="M607.319,147.437 C606.001,146.436 604.682,145.422 603.148,144.887 C600.288,143.888 598.75,145.661 596.949,147.298 C599.904,147.388 602.853,147.529 605.821,147.517 C606.285,147.515 606.794,147.481 607.319,147.437" id="Fill-7" fill="#FFFFFF" sketch:type="MSShapeGroup"></path>
                <path d="M532.08,104.706 C532.251,104.887 532.418,105.073 532.593,105.248 C534.535,107.192 536.67,108.855 538.505,110.93 C539.772,112.363 540.903,113.875 541.968,115.426 C542.386,111.959 544.441,107.954 542.896,104.692 C541.379,101.491 535.125,104.932 532.135,104.717 C532.115,104.716 532.1,104.708 532.08,104.706" id="Fill-8" fill="#FFFFFF" sketch:type="MSShapeGroup"></path>
                <path d="M592.285,147.229 C592.641,147.225 592.995,147.237 593.351,147.238 C591.459,145.008 590.047,141.922 586.899,142.745 C585.133,143.207 583.327,145.693 581.35,145.468 C578.535,145.146 577.976,140.669 577.241,137.787 C574.223,139.243 567.886,142.879 565.945,140.931 C563.671,138.649 566.431,133.651 566.031,130.408 C563.9,131.749 560.831,133.841 558.929,133.476 C556.705,133.048 556.421,130.134 556.103,128.378 C555.758,126.463 555.646,124.521 555.45,122.588 C555.306,121.184 555.228,115.3 553.769,114.436 C552.447,113.654 545.6,117.303 543.655,117.993 C545.514,120.947 547.225,123.999 549.121,126.971 C558.38,141.487 575.656,147.382 592.285,147.229" id="Fill-9" fill="#FFFFFF" sketch:type="MSShapeGroup"></path>
                <path d="M439.512,44.645 C439.56,44.527 439.609,44.409 439.662,44.292 C439.552,44.292 439.434,44.294 439.321,44.295 C439.386,44.41 439.45,44.527 439.512,44.645" id="Fill-10" fill="#FFFFFF" sketch:type="MSShapeGroup"></path>
                <path d="M437.542,54.573 C437.523,54.633 437.504,54.694 437.486,54.754 C437.546,54.765 437.606,54.777 437.665,54.788 C437.625,54.715 437.582,54.645 437.542,54.573" id="Fill-11" fill="#FFFFFF" sketch:type="MSShapeGroup"></path>
                <path d="M446.178,55.71 C446.954,55.725 447.729,55.722 448.506,55.711 C447.79,54.448 446.967,53.767 446.178,55.71" id="Fill-12" fill="#FFFFFF" sketch:type="MSShapeGroup"></path>
                <path d="M441.591,55.438 C441.877,55.474 442.164,55.498 442.45,55.526 C442.088,54.694 442.03,54.216 441.591,55.438" id="Fill-13" fill="#FFFFFF" sketch:type="MSShapeGroup"></path>
                <path d="M433.179,53.658 C433.121,53.761 433.063,53.864 433.004,53.969 C433.108,53.984 433.211,53.994 433.314,54.009 C433.266,53.895 433.225,53.774 433.179,53.658" id="Fill-14" fill="#FFFFFF" sketch:type="MSShapeGroup"></path>
                <path d="M607.612,150.013 C595.634,150.014 584.104,149.914 572.436,146.926 C562.442,144.367 552.917,137.808 547.428,129.019 C544.1,123.69 541.324,118.024 537.231,113.206 C534.54,110.038 531.2,107.591 528.659,104.305 C521.066,94.481 512.12,85.792 505.884,74.934 C502.513,69.066 499.519,62.958 497.11,56.632 C494.772,50.492 493.171,44.082 490.652,38.022 C488.025,31.702 485.068,24.48 478.913,20.944 C474.234,18.257 469.385,16.043 463.99,15.459 C463.597,15.617 463.225,15.556 462.929,15.365 C456.902,14.983 449.805,16.803 444.414,19.493 C442.714,20.342 441.528,21.935 440.105,23.053 C440.085,23.661 439.685,24.252 438.901,24.246 C438.436,24.242 437.954,24.239 437.464,24.243 C436.797,24.341 436.105,24.346 435.415,24.32 C432.271,24.553 429.15,25.457 427.805,28.821 C427.013,30.802 426.952,35.475 427.713,37.483 C429.814,43.028 438.892,41.829 443.664,41.747 C444.668,41.73 445.674,41.693 446.68,41.655 C447.03,41.447 447.428,41.457 447.779,41.615 C449.51,41.539 451.242,41.441 452.974,41.338 C453.166,41.267 453.381,41.263 453.59,41.302 C455.364,41.195 457.136,41.087 458.904,40.994 C460.923,40.888 463.7,40.15 465.237,41.889 C466.909,43.783 467.131,48.278 467.459,50.595 C467.559,51.306 467.671,52.049 467.683,52.773 C467.822,52.988 467.959,53.195 468.091,53.373 C468.751,54.262 467.934,55.127 467.05,55.169 C466.961,55.295 466.875,55.423 466.761,55.541 C465.833,56.508 464.248,56.897 462.603,57.089 C462.37,57.189 462.114,57.213 461.863,57.163 C460.484,57.282 459.125,57.305 458.135,57.451 C455.859,57.787 453.613,57.974 451.354,58.074 C450.96,58.437 450.254,58.448 449.804,58.135 C448.771,58.161 447.734,58.171 446.686,58.162 C442.846,58.128 439.009,57.764 435.204,57.223 C434.355,57.103 432.435,56.539 430.981,56.321 C430.861,56.322 430.743,56.304 430.629,56.273 C429.958,56.197 429.43,56.22 429.228,56.435 C428.061,57.684 429.115,60.673 429.393,62.097 C430.518,67.868 433.337,70.367 439.25,70.696 C443.655,70.941 447.949,70.779 452.106,69.205 C456.904,67.389 464.892,64.604 469.879,67.13 C473.669,69.049 476.996,76.621 476.056,80.629 C474.866,85.699 465.213,85.253 461.394,85.152 C457.802,85.056 454.316,84.114 450.801,83.464 C448.933,83.119 447.043,82.969 445.182,82.669 C445.196,82.671 443.11,82.361 442.714,82.236 C443.193,82.435 446.232,83.468 446.405,83.531 C447.67,83.993 447.556,86.033 446.073,85.987 C444.864,85.886 443.704,86.045 442.586,86.433 C443.941,86.764 445.135,86.469 446.413,86.91 C447.339,87.229 447.76,88.702 446.711,89.195 C446.229,89.421 445.796,89.671 445.384,89.936 C446.738,89.582 448.169,89.132 448.746,88.997 C450.593,88.562 452.251,88.288 454.171,88.177 C458.8,87.909 463.473,87.327 468.11,87.231 C470.303,87.185 475.548,85.775 477.37,87.492 C478.078,88.16 477.944,89.839 478.151,90.688 C478.63,92.65 479.464,94.245 479.542,96.27 C479.569,96.983 478.946,97.476 478.292,97.52 C474.825,97.753 471.674,99.453 468.245,100.036 C464.82,100.619 461.319,100.877 457.874,101.34 C455.13,101.709 452.381,102.045 449.61,101.84 C449.224,101.811 447.161,101.224 446.731,101.537 C445.433,101.394 445.865,102.064 448.027,103.548 C448.812,103.428 449.591,103.278 450.367,103.113 C450.551,102.979 450.785,102.893 451.073,102.889 C451.237,102.887 451.4,102.885 451.564,102.883 C452.964,102.864 453.279,105.03 451.896,105.338 C451.63,105.398 451.338,105.463 451.035,105.529 C450.979,105.654 450.906,105.776 450.798,105.893 C450.336,106.489 449.804,107.01 449.2,107.454 C448.373,108.091 448.433,108.081 449.378,107.425 C450.084,107.213 450.845,106.669 451.595,106.427 C452.487,106.138 453.415,107.075 453.132,107.964 C452.053,111.361 453.199,108.876 454.7,107.529 C456.303,106.091 458.115,105.608 460.186,104.848 C462.879,103.861 465.71,103.44 468.428,102.579 C470.96,101.777 472.901,99.954 475.479,99.241 C480.46,97.864 480.326,100.846 481.318,104.989 C482.58,110.257 484.576,115.244 485.648,120.606 C486.607,125.402 487.091,130.166 485.893,134.981 C485.017,138.497 484.283,142.04 483.099,145.471 C481.916,148.901 480.456,152.208 479.992,155.83 C479.86,156.864 479.5,159.099 479.693,160.034 C479.835,160.718 480.463,161.244 480.62,162.035 C480.821,163.053 480.691,164.835 479.944,165.664 C479.198,166.493 478.218,166.372 477.15,166.331 C476.36,166.3 475.652,166.146 474.87,166.023 C474.657,165.99 474.469,165.959 474.294,165.93 C474.531,165.982 474.794,166.042 475.086,166.111 C476.157,166.366 476.208,167.667 475.509,168.273 C476.173,168.196 476.834,168.207 477.48,168.44 C477.773,168.545 478.076,169.604 478.108,169.609 C479.038,169.781 479.168,168.912 479.826,168.372 C480.803,167.569 482.237,167.061 482.853,165.796 C483.632,164.195 482.977,161.95 482.872,160.381 C482.762,158.761 482.578,156.703 482.775,155.112 C483.019,153.138 483.406,153.918 484.604,152.682 C489.367,147.769 491.126,140.446 492.607,133.462 C492.994,131.639 493.261,128.509 494.924,127.239 C496.234,126.238 499.477,126.034 501.165,125.856 C501.669,125.803 502.281,126.285 502.37,126.774 C503.348,132.192 502.73,137.84 501.702,143.202 C501.231,145.657 500.79,148.365 499.738,150.66 C499.303,151.609 498.208,152.462 497.869,153.246 C496.392,156.658 499.197,160.661 498.072,164.104 C497.714,165.201 497.678,165.214 496.775,165.794 C496.487,165.98 496.063,166.064 495.638,166.093 C495.647,166.094 495.653,166.095 495.663,166.096 C496.515,166.211 496.794,167.407 496.341,168.052 C496.845,168.034 497.329,168.081 497.78,168.244 C498.531,168.515 498.903,169.013 499.067,169.351 C499.002,169.028 498.926,168.458 498.884,167.513 C498.82,166.045 499.014,165.172 499.527,163.83 C500.328,161.741 500.39,160.662 500.508,158.456 C500.548,157.694 500.526,157.015 500.774,156.29 C501.38,154.516 502.995,153.37 504.255,152.045 C506.681,149.495 508.189,146.775 509.213,143.405 C510.287,139.874 510.711,136.323 510.681,132.638 C510.668,131.057 510.362,129.596 511.121,128.181 C511.403,127.653 511.992,127.528 512.532,127.606 C514.672,127.914 515.855,130.222 517.16,131.743 C519.245,134.173 521.217,136.676 523.637,138.791 C528.689,143.205 534.439,146.264 540.575,148.88 C555.254,155.14 570.602,160.019 586.605,161.247 C593.802,161.799 600.901,161.374 607.592,158.45 C609.038,157.817 610.559,157.07 611.852,156.158 C612.934,155.395 616.643,151.412 615.426,149.713 C615.025,149.151 608.265,150.013 607.612,150.013 L607.612,150.013 Z M460.245,28.766 C459.174,29.809 457.826,28.806 457.48,27.651 C457.475,27.643 457.468,27.638 457.464,27.63 C457.437,27.582 457.425,27.533 457.401,27.484 C457.189,27.348 456.991,27.186 456.831,26.982 C456.106,26.056 455.926,24.509 456.368,23.334 C456.05,22.622 456.35,21.792 457.138,21.559 C457.182,21.546 457.23,21.538 457.275,21.526 C457.754,21.126 458.48,21.047 458.909,21.444 C459.371,21.526 459.806,21.708 460.141,22.039 C460.575,22.468 460.841,23.112 460.932,23.757 C461.239,24.708 461.203,25.803 460.767,26.612 C460.834,27.381 460.812,28.214 460.245,28.766 L460.245,28.766 Z M466.768,20.43 C466.544,21.861 464.572,21.448 464.364,20.201 C463.154,20.307 461.936,20.336 460.721,20.478 C458.869,20.696 456.995,20.982 455.13,21.058 C453.519,21.124 453.527,18.624 455.13,18.558 C456.986,18.482 458.878,18.232 460.721,17.978 C462.26,17.766 463.788,17.807 465.317,17.602 C465.753,17.543 466.176,17.886 466.396,18.221 C466.885,18.965 466.902,19.578 466.768,20.43 L466.768,20.43 Z" id="Fill-15" fill="#FFFFFF" sketch:type="MSShapeGroup"></path>
                <path d="M455.435,43.713 C455.645,44.094 455.866,44.47 456.1,44.84 C456.333,44.451 456.552,44.043 456.768,43.633 C456.387,43.669 456.01,43.698 455.642,43.706 C455.573,43.707 455.504,43.712 455.435,43.713" id="Fill-16" fill="#FFFFFF" sketch:type="MSShapeGroup"></path>
                <path d="M460.818,43.367 C461.078,44.019 461.307,44.698 461.586,45.277 C461.881,44.736 462.175,44.174 462.421,43.639 C462.091,43.526 461.681,43.45 461.13,43.388 C461.027,43.376 460.921,43.374 460.818,43.367" id="Fill-17" fill="#FFFFFF" sketch:type="MSShapeGroup"></path>
                <path d="M459.332,54.405 C459.235,54.571 459.141,54.74 459.05,54.909 C459.238,54.895 459.435,54.88 459.639,54.864 C459.539,54.712 459.436,54.559 459.332,54.405" id="Fill-18" fill="#FFFFFF" sketch:type="MSShapeGroup"></path>
                <path d="M454.071,54.457 C454.465,53.675 454.335,53.815 453.68,54.874 C453.533,55.074 453.408,55.288 453.27,55.494 C453.708,55.458 454.145,55.421 454.582,55.377 C454.444,54.987 454.291,54.646 454.071,54.457" id="Fill-19" fill="#FFFFFF" sketch:type="MSShapeGroup"></path>
                <path d="M615.741,147.246 C614.674,146.932 613.356,146.909 611.975,146.993 C611.657,146.706 611.157,146.633 610.714,146.771 C607.852,144.949 604.442,141.232 601.246,141.248 C597.986,141.263 596.87,146.512 593.797,143.829 C591.295,141.644 590.55,138.698 586.795,139.994 C585.439,140.461 582.641,142.997 581.528,142.45 C580.777,142.08 579.564,136.576 579.231,135.763 C578.986,135.166 578.396,134.653 577.694,134.89 C575.951,135.478 574.255,136.145 572.567,136.869 C572.152,137.047 568.7,139.057 568.023,138.878 C568.142,138.839 568.026,138.219 567.951,137.655 C567.542,134.577 569.363,130.773 567.822,127.907 C567.489,127.289 566.696,127.16 566.111,127.459 C564.913,128.07 561.971,130.336 560.667,130.271 C557.756,130.127 558.337,126.609 558.092,124.283 C557.738,120.922 557.846,116.862 556.08,113.829 C553.811,109.929 548.227,113.288 544.463,114.99 C544.846,110.974 546.67,106.84 545.296,102.721 C544.257,99.604 541.179,100.714 538.581,101.125 C537.559,101.287 536.337,101.795 535.309,101.782 C532.874,101.752 533.679,101.671 533.938,99.606 C534.273,96.941 535.086,94.392 535.211,91.672 C535.345,88.767 535.833,86.203 532.622,85.711 C530.625,85.405 527.722,86.085 525.76,86.622 C524.144,87.065 524.329,87.662 524.084,86.495 C523.925,85.741 524.596,84.203 524.676,83.35 C524.926,80.699 524.524,77.937 524.451,75.27 C524.412,73.871 524.55,71.631 523.814,70.361 C522.429,67.974 519.36,69.064 517.076,69.383 C515.343,69.625 512.841,71.094 512.54,69.402 C512.374,68.465 513.858,65.194 514.169,64.291 C515.086,61.629 516.357,59.202 516.632,56.386 C516.681,55.883 516.212,55.274 515.715,55.181 C511.309,54.351 506.819,56.444 502.341,56.77 C504.242,53.528 506.16,50.299 507.789,46.906 C509.018,44.348 511.38,40.699 510.56,37.832 C510.443,37.425 510.109,37.057 509.687,36.959 C507.683,36.492 505.581,37.047 503.573,37.32 C501.523,37.599 500.441,38.482 499.853,37.061 C499.338,35.816 500.022,33.293 500.107,31.94 C500.337,28.3 501.024,24.724 501.277,21.102 C501.352,20.031 501.779,17.929 501.164,16.936 C499.258,13.857 493.132,16.602 490.459,16.593 C486.498,16.58 486.627,14.398 485.748,10.863 C485.324,9.16 485.118,7.173 483.841,5.881 C483.541,5.578 483.038,5.419 482.624,5.559 C480.86,6.156 478.36,9.451 476.827,9.433 C474.272,9.403 474.749,3.707 474.251,1.349 C474.043,0.359 472.826,0.23 472.162,0.797 C470.587,2.143 469.138,4.111 467.925,5.796 C466.56,7.69 465.351,11.215 463.497,12.793 C460.079,12.501 456.621,12.791 453.408,13.773 C450.25,14.737 446.821,15.662 443.816,17.035 C442.399,17.682 441.063,18.434 439.884,19.451 C437.743,21.297 436.223,21.746 433.395,21.746 C432.939,21.746 432.617,21.95 432.419,22.238 C428.625,23.041 425.756,25.068 425.125,29.975 C424.643,33.728 424.468,39.498 427.711,42.302 C427.716,44.21 428.455,46.257 429.186,47.897 C429.508,48.619 430.651,48.702 431.149,48.15 C431.663,47.58 432.17,46.798 432.721,46.113 C433.109,47.064 433.464,48.007 434.179,48.793 C434.861,49.545 435.96,49.067 436.268,48.242 C437.514,44.891 437.013,46.234 438.822,48.142 C439.387,48.737 440.378,48.56 440.786,47.889 C442.01,45.876 440.867,45.621 442.481,47.431 C443.368,48.425 443.662,48.681 444.968,48.585 C445.566,48.54 445.968,48.219 446.174,47.667 C446.513,46.756 446.748,45.888 447.161,45.07 C447.752,46.385 448.219,47.749 449.335,48.733 C449.962,49.287 450.833,49.179 451.298,48.48 C452.007,47.414 452.37,45.807 453.106,44.63 C453.728,45.744 454.384,46.807 455.187,47.843 C455.597,48.373 456.53,48.28 456.955,47.843 C457.825,46.949 458.326,45.761 458.939,44.654 C459.637,46.037 459.721,47.567 461.172,48.569 C461.71,48.94 462.587,48.686 462.883,48.12 C463.254,47.409 463.653,46.721 464.031,46.028 C464.304,46.924 464.75,48.651 464.945,50.302 C464.881,50.297 464.823,50.276 464.756,50.278 C463.193,50.323 462.402,52.089 461.78,53.626 C461.269,52.894 460.794,52.123 460.218,51.465 C459.767,50.948 458.913,51.023 458.45,51.465 C457.495,52.378 456.506,54.336 456.749,54.454 C456.285,54.227 455.667,52.202 455.145,51.673 C454.846,51.37 454.342,51.212 453.929,51.351 C452.466,51.845 451.638,53.209 450.828,54.532 C450.205,53.035 449.465,51.552 448.152,50.731 C447.796,50.509 447.245,50.49 446.891,50.731 C445.71,51.536 444.856,52.66 444.236,53.917 C443.621,52.585 443.254,50.884 441.435,51.2 C440.466,51.368 439.921,52.187 439.56,53.151 C439.192,52.518 438.81,51.892 438.337,51.303 C437.924,50.787 436.992,50.85 436.569,51.303 C436.08,51.827 435.782,52.333 435.558,52.855 C435.285,52.192 435.049,51.511 434.84,50.784 C434.617,50.01 433.707,49.625 433.004,50.037 C432.076,50.579 431.51,51.368 431.036,52.239 C430.82,51.783 430.585,51.352 430.063,50.552 C429.645,49.909 428.667,49.675 428.1,50.299 C426.91,51.608 426.241,52.988 426.4,54.781 C426.432,55.146 426.585,55.433 426.797,55.642 C425.981,57.622 426.529,60.684 426.982,62.761 C428.335,68.966 431,72.46 437.483,73.087 C441.477,73.473 446.017,73.641 449.922,72.602 C453.792,71.573 457.129,69.872 461.157,69.314 C464.623,68.833 468.083,68.086 470.349,71.276 C471.423,72.786 473.737,76.61 473.566,78.737 C473.125,84.217 460.614,82.791 457.057,82.168 C452.775,81.418 448.602,80.413 444.26,80.038 C442.289,79.867 440.82,79.701 439.567,81.361 C439.302,81.712 439.369,82.265 439.567,82.623 C439.946,83.304 440.478,83.791 441.084,84.18 C440.246,84.475 439.454,84.869 438.768,85.402 C438.355,85.722 438.297,86.498 438.572,86.917 C439.534,88.379 441.019,88.666 442.566,88.824 C442.078,89.264 441.6,89.79 440.988,90.509 C440.433,91.162 440.551,91.98 441.241,92.472 C443.379,93.997 445.403,92.627 447.61,91.953 C451.693,90.705 455.746,90.77 459.952,90.326 C464.165,89.883 468.316,89.972 472.532,89.755 C473.091,89.727 474.593,89.268 475.212,89.407 C475.145,89.432 475.174,89.595 475.421,90.059 C476.018,91.182 476.646,93.497 476.91,95.142 C475.6,95.292 474.525,95.545 473.102,96.07 C469.172,97.522 465.237,97.829 461.109,98.374 C457.568,98.842 453.953,99.612 450.359,99.415 C448.759,99.327 447.032,98.712 445.439,99.115 C443.261,99.665 441.894,101.899 443.182,104.145 C443.952,105.487 445.339,105.957 446.858,106.024 C446.483,106.386 446.158,106.778 445.952,107.24 C445.735,107.727 445.704,108.363 446.148,108.754 C447.4,109.86 448.631,109.885 449.92,109.576 C449.374,111.363 449.166,113.351 451.494,113.461 C452.557,113.511 453.572,112.474 454.283,111.811 C456.095,110.123 457.197,108.844 459.607,107.8 C462.446,106.572 465.341,105.953 468.313,105.165 C470.843,104.495 473.655,101.883 476.144,101.652 C478.639,101.42 478.185,102.171 478.62,104.231 C478.931,105.699 479.173,107.115 479.647,108.543 C480.506,111.132 481.452,113.601 482.139,116.252 C483.758,122.506 484.735,128.707 483.276,135.052 C481.791,141.511 479.077,147.604 477.651,154.036 C477.194,156.099 476.806,158.48 477.108,160.568 C477.554,163.645 478.877,163.939 475.534,163.612 C473.29,163.394 470.305,163.591 470.478,166.64 C470.492,166.897 470.575,167.118 470.699,167.308 C469.97,167.685 469.35,168.207 468.971,169.032 C468.717,169.586 468.753,170.454 469.42,170.742 C471.502,171.641 472.902,170.589 474.924,170.651 C475.19,170.66 475.366,170.651 475.489,170.636 C475.459,170.768 475.561,171.033 476.057,171.538 C476.763,172.255 476.642,172.591 477.514,173.237 C477.878,173.506 478.406,173.425 478.777,173.237 C480.198,172.513 480.881,170.999 482.136,170.017 C483.396,169.03 484.271,168.708 484.967,167.17 C485.836,165.249 485.773,163.249 485.621,161.202 C485.547,160.227 484.733,156.665 485.364,155.595 C485.655,155.101 485.933,155.307 486.307,154.783 C487.743,152.774 489.29,150.818 490.748,148.525 C493.562,144.099 494.1,138.432 495.16,133.387 C495.615,131.224 495.719,129.28 498.229,129.052 C500.397,128.855 500.077,129.046 500.246,131.442 C500.337,132.747 500.307,134.126 500.254,135.438 C500.109,139.097 499.482,143.233 498.42,146.792 C497.731,149.101 495.118,150.807 494.646,152.917 C494.403,154.002 494.787,154.702 494.904,155.746 C495.073,157.256 496.117,161.574 495.641,162.785 C494.818,164.881 491.11,163.366 491.004,166.686 C490.99,167.127 491.269,167.545 491.649,167.764 C491.141,168.192 490.729,168.747 490.442,169.554 C490.15,170.377 490.899,171.078 491.648,171.137 C494.008,171.323 495.749,170.815 497.704,171.768 C498.671,172.239 498.765,172.86 499.975,172.851 C500.383,172.848 500.873,172.623 501.054,172.232 C502.17,169.815 501.151,167.285 502.033,164.685 C502.221,164.134 502.858,163.684 502.963,163.077 C503.233,161.526 502.83,159.99 503.008,158.456 C503.379,155.255 506.907,153.266 508.676,150.731 C510.373,148.299 511.325,145.354 512.071,142.509 C512.923,139.256 513.213,135.993 513.181,132.638 C513.173,131.784 513.429,130.533 512.855,130.504 C513.59,130.541 515.913,134.041 516.448,134.674 C520.881,139.925 525.853,144.395 532.007,147.557 C546.242,154.871 561.578,159.916 577.341,162.56 C584.481,163.757 592.649,165.003 599.815,163.501 C604.577,162.503 612.969,160.466 615.8,156.152 C617.3,153.865 619.276,148.286 615.741,147.246 L615.741,147.246 Z M603.148,144.887 C604.682,145.422 606.001,146.436 607.319,147.437 C606.794,147.481 606.285,147.515 605.821,147.517 C602.853,147.529 599.904,147.388 596.949,147.298 C598.75,145.661 600.288,143.888 603.148,144.887 L603.148,144.887 Z M553.769,114.436 C555.228,115.3 555.306,121.184 555.45,122.588 C555.646,124.521 555.758,126.463 556.103,128.378 C556.421,130.134 556.705,133.048 558.929,133.476 C560.831,133.841 563.9,131.749 566.031,130.408 C566.431,133.651 563.671,138.649 565.945,140.931 C567.886,142.879 574.223,139.243 577.241,137.787 C577.976,140.669 578.535,145.146 581.35,145.468 C583.327,145.693 585.133,143.207 586.899,142.745 C590.047,141.922 591.459,145.008 593.351,147.238 C592.995,147.237 592.641,147.225 592.285,147.229 C575.656,147.382 558.38,141.487 549.121,126.971 C547.225,123.999 545.514,120.947 543.655,117.993 C545.6,117.303 552.447,113.654 553.769,114.436 L553.769,114.436 Z M542.896,104.692 C544.441,107.954 542.386,111.959 541.968,115.426 C540.903,113.875 539.772,112.363 538.505,110.93 C536.67,108.855 534.535,107.192 532.593,105.248 C532.418,105.073 532.251,104.887 532.08,104.706 C532.1,104.708 532.115,104.716 532.135,104.717 C535.125,104.932 541.379,101.491 542.896,104.692 L542.896,104.692 Z M508.263,58.455 C509.441,58.249 511.358,57.399 512.462,57.672 C513.622,57.139 513.982,57.573 513.541,58.974 C513.358,59.415 513.175,59.856 512.992,60.297 C512.348,62.77 508.023,69.574 510.382,71.968 C513.002,74.626 519.143,69.465 521.466,71.679 C522.579,72.741 521.926,77.257 522.007,78.738 C522.174,81.797 522.031,84.364 521.168,87.315 C521.054,87.706 521.157,88.263 521.489,88.531 C524.398,90.878 531.038,86.373 532.666,88.48 C533.864,90.029 532.368,95.508 531.957,97.334 C531.513,99.311 530.345,101.276 530.793,103.271 C528.68,100.78 526.779,97.992 524.61,95.599 C514.687,84.649 506.783,72.699 500.994,59.314 C503.444,59.381 505.84,58.878 508.263,58.455 L508.263,58.455 Z M468.716,9.301 C469.752,7.715 470.839,5.976 472.104,4.454 C472.315,7.366 472.564,11.31 474.507,12.339 C477.717,14.04 479.607,8.742 482.16,8.569 C483.658,8.467 483.929,17.087 485.406,18.672 C487.523,20.941 492.648,18.846 495.131,18.565 C495.622,18.509 498.402,17.802 498.854,18.165 C498.992,18.276 498.783,21.019 498.777,21.102 C498.571,23.814 497.981,26.479 497.788,29.206 C497.598,31.904 495.76,38.152 498.487,39.969 C499.347,40.543 500.886,40.157 501.788,40.081 C502.639,40.01 507.658,38.675 508.006,39.305 C508.168,39.598 507.026,42.331 507.037,42.3 C505.235,47.247 502.39,51.757 499.73,56.285 C499.147,54.835 498.58,53.374 498.045,51.889 C494.971,43.355 492.415,35.096 488.052,27.086 C484.715,20.959 479.432,17.971 473.144,15.23 C471.015,14.302 468.731,13.613 466.39,13.185 C467.253,11.938 467.935,10.494 468.716,9.301 L468.716,9.301 Z M430.706,44.745 C430.609,44.401 430.52,44.047 430.443,43.694 C430.752,43.781 431.074,43.852 431.401,43.917 C431.158,44.184 430.929,44.461 430.706,44.745 L430.706,44.745 Z M434.783,44.707 C434.726,44.562 434.67,44.418 434.613,44.278 C434.734,44.283 434.855,44.284 434.977,44.288 C434.908,44.423 434.843,44.563 434.783,44.707 L434.783,44.707 Z M439.512,44.645 C439.45,44.527 439.386,44.41 439.321,44.295 C439.434,44.294 439.552,44.292 439.662,44.292 C439.609,44.409 439.56,44.527 439.512,44.645 L439.512,44.645 Z M444.332,45.761 C444.297,45.37 443.907,44.775 443.448,44.221 C444.011,44.202 444.573,44.178 445.136,44.154 C444.827,44.778 444.535,45.38 444.332,45.761 L444.332,45.761 Z M450.047,45.533 C449.786,45.03 449.566,44.495 449.344,43.961 C449.834,43.937 450.325,43.912 450.815,43.889 C450.546,44.423 450.303,44.977 450.047,45.533 L450.047,45.533 Z M456.1,44.84 C455.866,44.47 455.645,44.094 455.435,43.713 C455.504,43.712 455.573,43.707 455.642,43.706 C456.01,43.698 456.387,43.669 456.768,43.633 C456.552,44.043 456.333,44.451 456.1,44.84 L456.1,44.84 Z M461.586,45.277 C461.307,44.698 461.078,44.019 460.818,43.367 C460.921,43.374 461.027,43.376 461.13,43.388 C461.681,43.45 462.091,43.526 462.421,43.639 C462.175,44.174 461.881,44.736 461.586,45.277 L461.586,45.277 Z M459.332,54.405 C459.436,54.559 459.539,54.712 459.639,54.864 C459.435,54.88 459.238,54.895 459.05,54.909 C459.141,54.74 459.235,54.571 459.332,54.405 L459.332,54.405 Z M453.68,54.874 C454.335,53.815 454.465,53.675 454.071,54.457 C454.291,54.646 454.444,54.987 454.582,55.377 C454.145,55.421 453.708,55.458 453.27,55.494 C453.408,55.288 453.533,55.074 453.68,54.874 L453.68,54.874 Z M448.506,55.711 C447.729,55.722 446.954,55.725 446.178,55.71 C446.967,53.767 447.79,54.448 448.506,55.711 L448.506,55.711 Z M442.45,55.526 C442.164,55.498 441.877,55.474 441.591,55.438 C442.03,54.216 442.088,54.694 442.45,55.526 L442.45,55.526 Z M437.542,54.573 C437.582,54.645 437.625,54.715 437.665,54.788 C437.606,54.777 437.546,54.765 437.486,54.754 C437.504,54.694 437.523,54.633 437.542,54.573 L437.542,54.573 Z M433.179,53.658 C433.225,53.774 433.266,53.895 433.314,54.009 C433.211,53.994 433.108,53.984 433.004,53.969 C433.063,53.864 433.121,53.761 433.179,53.658 L433.179,53.658 Z M611.852,156.158 C610.559,157.07 609.038,157.817 607.592,158.45 C600.901,161.374 593.802,161.799 586.605,161.247 C570.602,160.019 555.254,155.14 540.575,148.88 C534.439,146.264 528.689,143.205 523.637,138.791 C521.217,136.676 519.245,134.173 517.16,131.743 C515.855,130.222 514.672,127.914 512.532,127.606 C511.992,127.528 511.403,127.653 511.121,128.181 C510.362,129.596 510.668,131.057 510.681,132.638 C510.711,136.323 510.287,139.874 509.213,143.405 C508.189,146.775 506.681,149.495 504.255,152.045 C502.995,153.37 501.38,154.516 500.774,156.29 C500.526,157.015 500.548,157.694 500.508,158.456 C500.39,160.662 500.328,161.741 499.527,163.83 C499.014,165.172 498.82,166.045 498.884,167.513 C498.926,168.458 499.002,169.028 499.067,169.351 C498.903,169.013 498.531,168.515 497.78,168.244 C497.329,168.081 496.845,168.034 496.341,168.052 C496.794,167.407 496.515,166.211 495.663,166.096 C495.653,166.095 495.647,166.094 495.638,166.093 C496.063,166.064 496.487,165.98 496.775,165.794 C497.678,165.214 497.714,165.201 498.072,164.104 C499.197,160.661 496.392,156.658 497.869,153.246 C498.208,152.462 499.303,151.609 499.738,150.66 C500.79,148.365 501.231,145.657 501.702,143.202 C502.73,137.84 503.348,132.192 502.37,126.774 C502.281,126.285 501.669,125.803 501.165,125.856 C499.477,126.034 496.234,126.238 494.924,127.239 C493.261,128.509 492.994,131.639 492.607,133.462 C491.126,140.446 489.367,147.769 484.604,152.682 C483.406,153.918 483.019,153.138 482.775,155.112 C482.578,156.703 482.762,158.761 482.872,160.381 C482.977,161.95 483.632,164.195 482.853,165.796 C482.237,167.061 480.803,167.569 479.826,168.372 C479.168,168.912 479.038,169.781 478.108,169.609 C478.076,169.604 477.773,168.545 477.48,168.44 C476.834,168.207 476.173,168.196 475.509,168.273 C476.208,167.667 476.157,166.366 475.086,166.111 C474.794,166.042 474.531,165.982 474.294,165.93 C474.469,165.959 474.657,165.99 474.87,166.023 C475.652,166.146 476.36,166.3 477.15,166.331 C478.218,166.372 479.198,166.493 479.944,165.664 C480.691,164.835 480.821,163.053 480.62,162.035 C480.463,161.244 479.835,160.718 479.693,160.034 C479.5,159.099 479.86,156.864 479.992,155.83 C480.456,152.208 481.916,148.901 483.099,145.471 C484.283,142.04 485.017,138.497 485.893,134.981 C487.091,130.166 486.607,125.402 485.648,120.606 C484.576,115.244 482.58,110.257 481.318,104.989 C480.326,100.846 480.46,97.864 475.479,99.241 C472.901,99.954 470.96,101.777 468.428,102.579 C465.71,103.44 462.879,103.861 460.186,104.848 C458.115,105.608 456.303,106.091 454.7,107.529 C453.199,108.876 452.053,111.361 453.132,107.964 C453.415,107.075 452.487,106.138 451.595,106.427 C450.845,106.669 450.084,107.213 449.378,107.425 C448.433,108.081 448.373,108.091 449.2,107.454 C449.804,107.01 450.336,106.489 450.798,105.893 C450.906,105.776 450.979,105.654 451.035,105.529 C451.338,105.463 451.63,105.398 451.896,105.338 C453.279,105.03 452.964,102.864 451.564,102.883 C451.4,102.885 451.237,102.887 451.073,102.889 C450.785,102.893 450.551,102.979 450.367,103.113 C449.591,103.278 448.812,103.428 448.027,103.548 C445.865,102.064 445.433,101.394 446.731,101.537 C447.161,101.224 449.224,101.811 449.61,101.84 C452.381,102.045 455.13,101.709 457.874,101.34 C461.319,100.877 464.82,100.619 468.245,100.036 C471.674,99.453 474.825,97.753 478.292,97.52 C478.946,97.476 479.569,96.983 479.542,96.27 C479.464,94.245 478.63,92.65 478.151,90.688 C477.944,89.839 478.078,88.16 477.37,87.492 C475.548,85.775 470.303,87.185 468.11,87.231 C463.473,87.327 458.8,87.909 454.171,88.177 C452.251,88.288 450.593,88.562 448.746,88.997 C448.169,89.132 446.738,89.582 445.384,89.936 C445.796,89.671 446.229,89.421 446.711,89.195 C447.76,88.702 447.339,87.229 446.413,86.91 C445.135,86.469 443.941,86.764 442.586,86.433 C443.704,86.045 444.864,85.886 446.073,85.987 C447.556,86.033 447.67,83.993 446.405,83.531 C446.232,83.468 443.193,82.435 442.714,82.236 C443.11,82.361 445.196,82.671 445.182,82.669 C447.043,82.969 448.933,83.119 450.801,83.464 C454.316,84.114 457.802,85.056 461.394,85.152 C465.213,85.253 474.866,85.699 476.056,80.629 C476.996,76.621 473.669,69.049 469.879,67.13 C464.892,64.604 456.904,67.389 452.106,69.205 C447.949,70.779 443.655,70.941 439.25,70.696 C433.337,70.367 430.518,67.868 429.393,62.097 C429.115,60.673 428.061,57.684 429.228,56.435 C429.43,56.22 429.958,56.197 430.629,56.273 C430.743,56.304 430.861,56.322 430.981,56.321 C432.435,56.539 434.355,57.103 435.204,57.223 C439.009,57.764 442.846,58.128 446.686,58.162 C447.734,58.171 448.771,58.161 449.804,58.135 C450.254,58.448 450.96,58.437 451.354,58.074 C453.613,57.974 455.859,57.787 458.135,57.451 C459.125,57.305 460.484,57.282 461.863,57.163 C462.114,57.213 462.37,57.189 462.603,57.089 C464.248,56.897 465.833,56.508 466.761,55.541 C466.875,55.423 466.961,55.295 467.05,55.169 C467.934,55.127 468.751,54.262 468.091,53.373 C467.959,53.195 467.822,52.988 467.683,52.773 C467.671,52.049 467.559,51.306 467.459,50.595 C467.131,48.278 466.909,43.783 465.237,41.889 C463.7,40.15 460.923,40.888 458.904,40.994 C457.136,41.087 455.364,41.195 453.59,41.302 C453.381,41.263 453.166,41.267 452.974,41.338 C451.242,41.441 449.51,41.539 447.779,41.615 C447.428,41.457 447.03,41.447 446.68,41.655 C445.674,41.693 444.668,41.73 443.664,41.747 C438.892,41.829 429.814,43.028 427.713,37.483 C426.952,35.475 427.013,30.802 427.805,28.821 C429.15,25.457 432.271,24.553 435.415,24.32 C436.105,24.346 436.797,24.341 437.464,24.243 C437.954,24.239 438.436,24.242 438.901,24.246 C439.685,24.252 440.085,23.661 440.105,23.053 C441.528,21.935 442.714,20.342 444.414,19.493 C449.805,16.803 456.902,14.983 462.929,15.365 C463.225,15.556 463.597,15.617 463.99,15.459 C469.385,16.043 474.234,18.257 478.913,20.944 C485.068,24.48 488.025,31.702 490.652,38.022 C493.171,44.082 494.772,50.492 497.11,56.632 C499.519,62.958 502.513,69.066 505.884,74.934 C512.12,85.792 521.066,94.481 528.659,104.305 C531.2,107.591 534.54,110.038 537.231,113.206 C541.324,118.024 544.1,123.69 547.428,129.019 C552.917,137.808 562.442,144.367 572.436,146.926 C584.104,149.914 595.634,150.014 607.612,150.013 C608.265,150.013 615.025,149.151 615.426,149.713 C616.643,151.412 612.934,155.395 611.852,156.158 L611.852,156.158 Z" id="Fill-20" fill="#000000" sketch:type="MSShapeGroup"></path>
                <path d="M460.932,23.757 C460.841,23.112 460.575,22.468 460.141,22.039 C459.806,21.708 459.371,21.526 458.909,21.444 C458.48,21.047 457.754,21.126 457.275,21.526 C457.23,21.538 457.182,21.546 457.138,21.559 C456.35,21.792 456.05,22.622 456.368,23.334 C455.926,24.509 456.106,26.056 456.831,26.982 C456.991,27.186 457.189,27.348 457.401,27.484 C457.425,27.533 457.437,27.582 457.464,27.63 C457.468,27.638 457.475,27.643 457.48,27.651 C457.826,28.806 459.174,29.809 460.245,28.766 C460.812,28.214 460.834,27.381 460.767,26.612 C461.203,25.803 461.239,24.708 460.932,23.757" id="Fill-21" fill="#000000" sketch:type="MSShapeGroup"></path>
                <path d="M465.317,17.602 C463.788,17.807 462.26,17.766 460.721,17.978 C458.878,18.232 456.986,18.482 455.13,18.558 C453.527,18.624 453.519,21.124 455.13,21.058 C456.995,20.982 458.869,20.696 460.721,20.478 C461.936,20.336 463.154,20.307 464.364,20.201 C464.572,21.448 466.544,21.861 466.768,20.43 C466.902,19.578 466.885,18.965 466.396,18.221 C466.176,17.886 465.753,17.543 465.317,17.602" id="Fill-22" fill="#000000" sketch:type="MSShapeGroup"></path>
                <path d="M418.569,40.425 C415.783,33.743 405.312,27.586 399.712,26.591 C398.755,26.421 397.606,27.45 398.3,28.427 C399.266,29.786 400.602,31.895 401.233,33.8 C395.193,32.573 389.078,27.811 384.42,24.263 C383.676,23.696 382.477,24.46 382.539,25.342 C382.64,26.759 382.885,28.057 383.454,29.379 C383.646,29.827 383.948,30.252 384.102,30.709 C384.567,32.096 386.055,31.744 384.081,32.466 C382.53,33.032 380.28,31.731 378.739,31.336 C376.815,30.844 374.885,30.589 372.911,30.422 C372.15,30.357 371.427,31.28 371.706,32.004 C373.387,36.369 376.54,39.965 380.526,41.823 C378.304,41.785 376.216,41.433 373.931,41.017 C372.786,40.808 372.087,41.833 372.519,42.853 C373.625,45.466 376.693,47.758 378.906,49.394 C381.66,51.43 384.543,51.947 387.432,52.867 C384.841,53.407 381.994,54.18 383.166,56.83 C384.639,60.161 392.814,62.159 395.733,62.521 C401.029,63.178 406.883,61.491 410.639,57.577 C412.797,55.328 415.505,52.562 417.182,49.96 C418.741,47.54 419.184,44.783 419.936,41.971 C420.198,40.994 419.343,40.369 418.569,40.425 L418.569,40.425 Z M411.353,53.006 C408.476,56.444 405.31,59.148 400.729,59.95 C396.697,60.656 390.99,59.784 387.701,57.082 C386.106,55.771 385.646,56.157 388.074,55.465 C389.571,55.037 390.568,54.975 391.907,54.154 C392.67,53.686 392.768,52.439 391.907,51.995 C389.048,50.52 385.845,50.613 382.954,49.059 C380.888,47.949 378.086,46.085 376.232,43.959 C377.788,44.21 379.304,44.371 381.06,44.306 C383.718,44.207 385.864,43.359 388.449,43.081 C388.448,43.077 388.448,43.073 388.447,43.069 C388.559,43.055 388.669,43.053 388.781,43.036 C390.161,42.837 389.851,40.43 388.449,40.581 C388.336,40.593 388.228,40.613 388.117,40.628 L388.117,40.627 C382.727,41.405 377.58,37.831 374.999,33.204 C377.496,33.648 379.759,34.421 382.3,35.039 C383.653,35.368 385.546,35.859 386.816,34.995 C388.8,33.645 387.705,31.224 386.547,28.979 C391.405,32.563 396.801,35.983 402.829,36.549 C403.46,36.608 404.137,35.927 404.079,35.299 C403.914,33.499 403.176,31.664 402.244,29.977 C408.475,32.464 417.462,38.813 416.714,44.539 C416.707,44.596 416.71,44.646 416.709,44.698 C416.349,46.081 415.887,47.43 415.072,48.554 C414.065,49.941 412.386,51.772 411.353,53.006 L411.353,53.006 Z" id="Fill-23" fill="#000000" sketch:type="MSShapeGroup"></path>
                <path d="M49.349,135.231 C43.595,135.231 39.618,138.447 37.672,140.392 C34.627,137.008 31.326,135.231 26.588,135.231 C21.173,135.231 17.28,138.277 15.165,140.477 L13.727,137.008 C13.473,136.5 12.881,136.077 12.289,136.077 L8.396,136.077 C7.466,136.077 6.788,136.754 6.788,137.685 L6.788,168.315 C6.788,169.161 7.466,169.922 8.396,169.922 L17.28,169.922 C18.127,169.922 18.888,169.161 18.888,168.315 L18.888,152.069 C18.888,148.6 21.426,146.146 24.811,146.146 C28.619,146.146 30.142,149.108 30.142,152.492 L30.142,168.315 C30.142,169.161 30.818,169.922 31.75,169.922 L39.873,169.922 C40.803,169.922 41.48,169.161 41.48,168.315 L41.48,151.9 C41.48,148.6 44.187,146.146 47.149,146.146 C51.041,146.146 52.818,149.108 52.818,152.492 L52.818,168.315 C52.818,169.161 53.495,169.922 54.426,169.922 L63.395,169.922 C64.326,169.922 65.002,169.161 65.002,168.315 L65.002,153 C65.002,143.354 59.841,135.231 49.349,135.231" id="Fill-24" fill="#000000" sketch:type="MSShapeGroup"></path>
                <path d="M84.204,136.077 L74.896,136.077 C74.05,136.077 73.288,136.754 73.288,137.685 L73.288,168.315 C73.288,169.161 74.05,169.922 74.896,169.922 L84.204,169.922 C85.05,169.922 85.811,169.161 85.811,168.315 L85.811,137.685 C85.811,136.754 85.05,136.077 84.204,136.077" id="Fill-25" fill="#000000" sketch:type="MSShapeGroup"></path>
                <path d="M79.466,112.385 C75.742,112.385 72.781,115.431 72.781,119.155 C72.781,122.877 75.742,125.839 79.466,125.839 C83.188,125.839 86.234,122.877 86.234,119.155 C86.234,115.431 83.188,112.385 79.466,112.385" id="Fill-26" fill="#000000" sketch:type="MSShapeGroup"></path>
                <path d="M170.503,110.693 L161.111,110.693 C160.264,110.693 159.503,111.455 159.503,112.301 L159.503,136.839 C158.487,136.246 155.357,135.231 152.48,135.231 C143.426,135.231 135.642,141.069 135.642,153 C135.642,162.73 142.834,170.769 152.396,170.769 C155.389,170.769 157.796,169.904 159.619,168.874 C159.861,169.469 160.458,169.922 161.111,169.922 L170.503,169.922 C171.349,169.922 172.11,169.161 172.11,168.315 L172.11,112.301 C172.11,111.455 171.349,110.693 170.503,110.693 L170.503,110.693 Z M154.088,159.853 C150.195,159.853 147.234,156.807 147.234,152.915 C147.234,149.108 150.195,146.146 154.088,146.146 C157.979,146.146 160.856,149.108 160.856,152.915 C160.856,156.807 157.979,159.853 154.088,159.853 L154.088,159.853 Z" id="Fill-27" fill="#000000" sketch:type="MSShapeGroup"></path>
                <path d="M192.159,110.693 L182.852,110.693 C182.006,110.693 181.245,111.455 181.245,112.301 L181.245,168.315 C181.245,169.161 182.006,169.922 182.852,169.922 L192.159,169.922 C193.006,169.922 193.767,169.161 193.767,168.315 L193.767,112.301 C193.767,111.455 193.006,110.693 192.159,110.693" id="Fill-28" fill="#000000" sketch:type="MSShapeGroup"></path>
                <path d="M217.88,135.231 C207.895,135.231 200.365,143.438 200.365,153 C200.365,162.73 207.98,170.769 218.049,170.769 C223.379,170.769 227.61,168.907 230.572,165.946 C231.332,165.184 231.164,164.168 230.657,163.491 L226.426,158.415 C225.917,157.823 225.071,157.823 224.31,158.415 C222.957,159.43 220.502,160.446 218.387,160.446 C213.987,160.446 212.126,157.146 211.871,154.861 L232.179,154.861 C232.94,154.861 233.702,154.269 233.787,153.423 C233.871,152.83 233.956,151.73 233.956,151.138 C233.956,141.831 226.511,135.231 217.88,135.231 L217.88,135.231 Z M212.972,148.261 C213.311,146.061 215.257,144.284 217.541,144.284 C219.741,144.284 221.856,146.061 222.026,148.261 L212.972,148.261 L212.972,148.261 Z" id="Fill-29" fill="#000000" sketch:type="MSShapeGroup"></path>
                <path d="M282.604,135.231 C276.851,135.231 272.874,138.447 270.928,140.392 C267.882,137.008 264.582,135.231 259.843,135.231 C254.429,135.231 250.537,138.277 248.421,140.477 L246.982,137.008 C246.729,136.5 246.137,136.077 245.544,136.077 L241.652,136.077 C240.722,136.077 240.045,136.754 240.045,137.685 L240.045,168.315 C240.045,169.161 240.722,169.922 241.652,169.922 L250.537,169.922 C251.382,169.922 252.144,169.161 252.144,168.315 L252.144,152.069 C252.144,148.6 254.682,146.146 258.067,146.146 C261.874,146.146 263.397,149.108 263.397,152.492 L263.397,168.315 C263.397,169.161 264.074,169.922 265.005,169.922 L273.128,169.922 C274.059,169.922 274.736,169.161 274.736,168.315 L274.736,151.9 C274.736,148.6 277.443,146.146 280.405,146.146 C284.297,146.146 286.074,149.108 286.074,152.492 L286.074,168.315 C286.074,169.161 286.751,169.922 287.681,169.922 L296.65,169.922 C297.581,169.922 298.258,169.161 298.258,168.315 L298.258,153 C298.258,143.354 293.096,135.231 282.604,135.231" id="Fill-30" fill="#000000" sketch:type="MSShapeGroup"></path>
                <path d="M312.721,112.385 C308.998,112.385 306.036,115.431 306.036,119.155 C306.036,122.877 308.998,125.839 312.721,125.839 C316.444,125.839 319.49,122.877 319.49,119.155 C319.49,115.431 316.444,112.385 312.721,112.385" id="Fill-31" fill="#000000" sketch:type="MSShapeGroup"></path>
                <path d="M317.459,136.077 L308.152,136.077 C307.305,136.077 306.544,136.754 306.544,137.685 L306.544,168.315 C306.544,169.161 307.305,169.922 308.152,169.922 L317.459,169.922 C318.306,169.922 319.066,169.161 319.066,168.315 L319.066,137.685 C319.066,136.754 318.306,136.077 317.459,136.077" id="Fill-32" fill="#000000" sketch:type="MSShapeGroup"></path>
                <path d="M360.61,110.693 L351.217,110.693 C350.371,110.693 349.609,111.455 349.609,112.301 L349.609,136.839 C348.595,136.246 345.463,135.231 342.588,135.231 C333.533,135.231 325.748,141.069 325.748,153 C325.748,162.73 332.941,170.769 342.503,170.769 C345.495,170.769 347.903,169.904 349.726,168.874 C349.968,169.469 350.565,169.922 351.218,169.922 L360.61,169.922 C361.35,169.922 362.026,169.339 362.183,168.627 C362.205,168.525 362.217,168.42 362.217,168.315 L362.217,112.301 C362.217,111.455 361.455,110.693 360.61,110.693 L360.61,110.693 Z M344.194,159.853 C340.303,159.853 337.341,156.807 337.341,152.915 C337.341,149.108 340.303,146.146 344.194,146.146 C348.086,146.146 350.963,149.108 350.963,152.915 C350.963,156.807 348.086,159.853 344.194,159.853 L344.194,159.853 Z" id="Fill-33" fill="#000000" sketch:type="MSShapeGroup"></path>
                <path d="M403.758,110.693 L394.366,110.693 C393.52,110.693 392.758,111.455 392.758,112.301 L392.758,136.839 C391.744,136.246 388.612,135.231 385.735,135.231 C376.682,135.231 368.897,141.069 368.897,153 C368.897,162.73 376.09,170.769 385.651,170.769 C388.644,170.769 391.052,169.904 392.874,168.874 C393.116,169.469 393.714,169.922 394.366,169.922 L403.758,169.922 C404.499,169.922 405.174,169.339 405.331,168.627 C405.354,168.525 405.366,168.42 405.366,168.315 L405.366,112.301 C405.366,111.455 404.604,110.693 403.758,110.693 L403.758,110.693 Z M387.343,159.853 C383.451,159.853 380.49,156.807 380.49,152.915 C380.49,149.108 383.451,146.146 387.343,146.146 C391.235,146.146 394.112,149.108 394.112,152.915 C394.112,156.807 391.235,159.853 387.343,159.853 L387.343,159.853 Z" id="Fill-34" fill="#000000" sketch:type="MSShapeGroup"></path>
                <path d="M425.415,110.693 L416.108,110.693 C415.261,110.693 414.5,111.455 414.5,112.301 L414.5,168.315 C414.5,169.161 415.261,169.922 416.108,169.922 L425.415,169.922 C426.261,169.922 427.022,169.161 427.022,168.315 L427.022,112.301 C427.022,111.455 426.261,110.693 425.415,110.693" id="Fill-35" fill="#000000" sketch:type="MSShapeGroup"></path>
                <path d="M451.135,135.231 C441.151,135.231 433.62,143.438 433.62,153 C433.62,162.73 441.236,170.769 451.304,170.769 C456.634,170.769 460.865,168.907 463.827,165.946 C464.588,165.184 464.419,164.168 463.912,163.491 L459.681,158.415 C459.173,157.823 458.327,157.823 457.565,158.415 C456.212,159.43 453.758,160.446 451.643,160.446 C447.243,160.446 445.382,157.146 445.127,154.861 L465.435,154.861 C466.196,154.861 466.958,154.269 467.043,153.423 C467.126,152.83 467.211,151.73 467.211,151.138 C467.211,141.831 459.766,135.231 451.135,135.231 L451.135,135.231 Z M446.228,148.261 C446.566,146.061 448.512,144.284 450.797,144.284 C452.997,144.284 455.112,146.061 455.282,148.261 L446.228,148.261 L446.228,148.261 Z" id="Fill-36" fill="#000000" sketch:type="MSShapeGroup"></path>
                <path d="M127.354,110.693 L117.962,110.693 C117.116,110.693 116.354,111.455 116.354,112.301 L116.354,136.839 C115.339,136.246 112.208,135.231 109.331,135.231 C100.278,135.231 92.493,141.069 92.493,153 C92.493,162.73 99.686,170.769 109.247,170.769 C112.24,170.769 114.648,169.904 116.471,168.874 C116.712,169.469 117.31,169.922 117.962,169.922 L127.354,169.922 C128.2,169.922 128.962,169.161 128.962,168.315 L128.962,112.301 C128.962,111.455 128.2,110.693 127.354,110.693 L127.354,110.693 Z M110.939,159.853 C107.047,159.853 104.085,156.807 104.085,152.915 C104.085,149.108 107.047,146.146 110.939,146.146 C114.831,146.146 117.708,149.108 117.708,152.915 C117.708,156.807 114.831,159.853 110.939,159.853 L110.939,159.853 Z" id="Fill-37" fill="#000000" sketch:type="MSShapeGroup"></path>
                <path d="M8.423,185.875 C9.826,186.159 10.812,186.612 11.381,187.234 C11.469,187.412 11.491,187.545 11.448,187.633 C11.403,187.723 11.3,187.86 11.141,188.047 C10.981,188.233 10.875,188.389 10.822,188.512 L10.822,191.95 L16.684,191.95 C16.772,191.879 16.884,191.75 17.017,191.564 C17.15,191.378 17.274,191.24 17.39,191.151 C17.505,191.062 17.643,191.035 17.803,191.071 C18.549,191.284 19.162,191.843 19.642,192.75 C19.696,192.857 19.696,192.949 19.642,193.03 C19.589,193.11 19.495,193.199 19.362,193.296 C19.229,193.394 19.135,193.478 19.083,193.549 L19.083,200.903 C18.993,201.242 18.918,201.486 18.856,201.636 C18.794,201.788 18.682,201.939 18.523,202.09 C18.363,202.241 18.149,202.326 17.883,202.343 C17.439,202.307 17.083,201.934 16.817,201.223 L10.822,201.223 L10.822,208.978 C10.732,209.315 10.657,209.561 10.595,209.711 C10.533,209.861 10.421,210.013 10.262,210.163 C10.102,210.315 9.889,210.399 9.622,210.418 C9.142,210.382 8.743,209.902 8.423,208.978 L8.423,201.223 L2.48,201.223 C2.374,201.632 2.244,201.939 2.094,202.142 C1.943,202.348 1.691,202.468 1.335,202.502 C0.855,202.468 0.456,201.988 0.135,201.064 L0.135,190.992 C1.13,191.187 1.957,191.506 2.614,191.95 L8.423,191.95 L8.423,185.875 L8.423,185.875 Z M2.748,193.283 C2.64,193.407 2.569,193.523 2.534,193.629 L2.534,199.891 L8.423,199.891 L8.423,193.283 L2.748,193.283 L2.748,193.283 Z M10.822,199.891 L16.684,199.891 L16.684,193.283 L10.822,193.283 L10.822,199.891 Z" id="Fill-38" fill="#1A1918" sketch:type="MSShapeGroup"></path>
                <path d="M99.026,185.875 C100.428,186.159 101.414,186.612 101.984,187.234 C102.072,187.412 102.094,187.545 102.05,187.633 C102.005,187.723 101.902,187.86 101.744,188.047 C101.583,188.233 101.478,188.389 101.424,188.512 L101.424,191.95 L107.287,191.95 C107.375,191.879 107.486,191.75 107.619,191.564 C107.752,191.378 107.876,191.24 107.992,191.151 C108.108,191.062 108.245,191.035 108.405,191.071 C109.151,191.284 109.765,191.843 110.245,192.75 C110.298,192.857 110.298,192.949 110.245,193.03 C110.191,193.11 110.097,193.199 109.964,193.296 C109.831,193.394 109.737,193.478 109.685,193.549 L109.685,200.903 C109.595,201.242 109.52,201.486 109.458,201.636 C109.396,201.788 109.285,201.939 109.125,202.09 C108.965,202.241 108.751,202.326 108.485,202.343 C108.041,202.307 107.686,201.934 107.42,201.223 L101.424,201.223 L101.424,208.978 C101.335,209.315 101.259,209.561 101.197,209.711 C101.135,209.861 101.024,210.013 100.865,210.163 C100.704,210.315 100.492,210.399 100.224,210.418 C99.744,210.382 99.345,209.902 99.026,208.978 L99.026,201.223 L93.082,201.223 C92.977,201.632 92.846,201.939 92.696,202.142 C92.546,202.348 92.293,202.468 91.937,202.502 C91.457,202.468 91.058,201.988 90.737,201.064 L90.737,190.992 C91.732,191.187 92.559,191.506 93.217,191.95 L99.026,191.95 L99.026,185.875 L99.026,185.875 Z M93.35,193.283 C93.243,193.407 93.172,193.523 93.136,193.629 L93.136,199.891 L99.026,199.891 L99.026,193.283 L93.35,193.283 L93.35,193.283 Z M101.424,199.891 L107.286,199.891 L107.286,193.283 L101.424,193.283 L101.424,199.891 Z" id="Fill-39" fill="#1A1918" sketch:type="MSShapeGroup"></path>
                <path d="M181.099,191.284 L178.621,191.284 L178.621,189.952 L183.897,189.952 L183.897,185.475 C185.301,185.759 186.287,186.212 186.855,186.834 C186.945,187.011 186.967,187.145 186.922,187.234 C186.878,187.322 186.776,187.46 186.615,187.646 C186.456,187.833 186.349,187.989 186.296,188.113 L186.296,189.952 L187.654,189.952 C188.045,189.401 188.454,189.046 188.88,188.885 C189.307,189.046 189.858,189.588 190.533,190.512 C190.64,190.743 190.617,190.929 190.466,191.071 C190.315,191.213 190.106,191.284 189.84,191.284 L188.561,191.284 L187.815,193.388 L187.149,195.388 L187.894,195.388 C188.285,194.837 188.694,194.482 189.12,194.323 C189.547,194.482 190.098,195.024 190.773,195.948 C190.88,196.179 190.857,196.365 190.706,196.507 C190.555,196.649 190.346,196.72 190.08,196.72 L186.137,196.72 L186.137,200.104 L187.654,200.104 C188.045,199.555 188.454,199.199 188.88,199.038 C189.307,199.199 189.858,199.741 190.533,200.663 C190.64,200.895 190.617,201.081 190.466,201.223 C190.315,201.366 190.106,201.437 189.84,201.437 L186.137,201.437 L186.137,202.262 C186.9,202.476 187.485,202.716 187.894,202.982 C188.606,203.426 189.084,203.932 189.335,204.502 C189.582,205.053 189.53,205.505 189.174,205.861 C188.818,206.217 188.366,206.269 187.815,206.02 C187.601,205.932 187.419,205.737 187.268,205.434 C187.118,205.132 186.979,204.928 186.855,204.821 C186.696,204.661 186.456,204.493 186.137,204.315 L186.137,210.178 C186.047,210.515 185.972,210.759 185.91,210.909 C185.847,211.061 185.736,211.212 185.577,211.363 C185.416,211.514 185.204,211.599 184.936,211.616 C184.458,211.58 184.057,211.1 183.738,210.178 L183.738,204.794 C183.577,205.008 183.436,205.186 183.312,205.327 C182.547,206.198 181.809,206.855 181.099,207.299 C180.3,207.814 179.394,208.187 178.381,208.418 C179.803,206.749 180.949,205.31 181.819,204.101 C182.263,203.48 182.814,202.592 183.472,201.437 L179.181,201.437 L179.181,200.104 L183.738,200.104 L183.738,196.72 L178.141,196.72 L178.141,195.388 L181.819,195.388 C181.695,195.139 181.623,194.762 181.606,194.255 C181.588,193.749 181.552,193.38 181.5,193.15 C181.447,192.936 181.38,192.629 181.299,192.23 C181.22,191.83 181.153,191.515 181.099,191.284 L181.099,191.284 Z M183.631,195.388 L185.79,195.388 L186.109,191.284 L181.953,191.284 C182.467,191.729 182.885,192.28 183.204,192.936 C183.702,193.949 183.845,194.766 183.631,195.388 L183.631,195.388 Z M193.171,203.062 C194.273,203.418 195.071,203.844 195.57,204.341 C195.623,204.448 195.636,204.523 195.609,204.568 C195.583,204.612 195.512,204.693 195.396,204.808 C195.281,204.924 195.206,205.008 195.169,205.061 C195.133,205.132 195.019,205.34 194.824,205.687 C194.627,206.033 194.451,206.305 194.29,206.5 C194.113,206.712 193.881,207.006 193.598,207.379 C193.313,207.752 193.091,208.032 192.931,208.219 C192.771,208.405 192.559,208.635 192.292,208.911 C192.025,209.186 191.732,209.449 191.412,209.698 C190.88,210.106 190.426,210.399 190.053,210.577 C189.68,210.755 189.094,210.941 188.295,211.136 C189.449,209.662 190.515,208.116 191.493,206.5 C191.723,206.127 191.976,205.651 192.252,205.074 C192.526,204.498 192.745,204.013 192.904,203.621 L193.171,203.062 L193.171,203.062 Z M201.486,210.896 L197.488,210.896 C196.618,210.737 196.11,210.311 195.969,209.618 L195.969,202.369 L193.197,202.369 C193.02,202.832 192.691,203.089 192.211,203.143 C191.732,203.107 191.332,202.627 191.013,201.703 L191.013,186.994 C191.847,187.172 192.584,187.438 193.225,187.794 L198.447,187.794 C198.536,187.723 198.648,187.593 198.781,187.406 C198.914,187.22 199.038,187.082 199.154,186.994 C199.269,186.905 199.407,186.878 199.566,186.913 C200.313,187.127 200.925,187.687 201.405,188.593 C201.458,188.699 201.458,188.793 201.405,188.872 C201.351,188.953 201.259,189.041 201.126,189.14 C200.993,189.236 200.899,189.322 200.845,189.393 L200.845,201.544 C200.757,201.881 200.681,202.125 200.62,202.277 C200.556,202.427 200.446,202.579 200.286,202.729 C200.127,202.88 199.913,202.965 199.647,202.982 C199.309,202.946 199.034,202.742 198.82,202.369 L198.367,202.369 L198.367,207.805 C198.367,208.071 198.47,208.294 198.674,208.472 C198.878,208.65 199.096,208.746 199.327,208.765 L200.127,208.765 L201.885,205.22 C201.902,205.7 201.906,206.097 201.898,206.406 C201.889,206.717 201.893,207.072 201.911,207.473 C201.93,207.872 201.973,208.268 202.045,208.658 C202.08,208.819 202.222,209.023 202.472,209.271 C202.719,209.52 202.817,209.741 202.764,209.938 C202.605,210.577 202.178,210.896 201.486,210.896 L201.486,210.896 Z M193.757,189.125 C193.579,189.339 193.465,189.508 193.411,189.633 L193.411,192.083 L198.447,192.083 L198.447,189.125 L193.757,189.125 L193.757,189.125 Z M193.411,196.374 L198.447,196.374 L198.447,193.416 L193.411,193.416 L193.411,196.374 Z M193.411,201.036 L198.447,201.036 L198.447,197.705 L193.411,197.705 L193.411,201.036 Z" id="Fill-40" fill="#1A1918" sketch:type="MSShapeGroup"></path>
                <path d="M276.098,207.379 L280.096,207.379 C280.629,207.379 280.895,206.819 280.895,205.7 L280.895,198.399 L269.464,198.399 L269.464,197.067 L280.895,197.067 L280.895,191.791 C281.429,191.897 281.969,192.066 282.52,192.297 L286.252,188.407 L272.341,188.407 L272.341,187.074 L286.891,187.074 C287.015,187.003 287.152,186.883 287.304,186.714 C287.454,186.546 287.598,186.426 287.731,186.354 C287.864,186.283 288.01,186.283 288.17,186.354 C289.023,186.727 289.583,187.393 289.849,188.353 C289.885,188.495 289.853,188.602 289.756,188.673 C289.658,188.743 289.512,188.81 289.316,188.872 C289.12,188.934 288.979,189.002 288.89,189.072 L283.933,193.256 C283.986,193.363 283.977,193.478 283.907,193.603 C283.836,193.727 283.729,193.864 283.587,194.016 C283.444,194.166 283.347,194.304 283.294,194.428 L283.294,197.067 L289.529,197.067 C289.724,196.889 289.99,196.56 290.329,196.081 C290.665,195.601 290.959,195.317 291.208,195.228 C291.332,195.246 291.478,195.309 291.647,195.414 C291.816,195.521 292.003,195.673 292.207,195.868 C292.412,196.063 292.594,196.245 292.753,196.413 C292.914,196.582 293.109,196.796 293.34,197.053 C293.57,197.311 293.739,197.502 293.846,197.626 C293.953,197.857 293.926,198.044 293.767,198.186 C293.606,198.329 293.394,198.399 293.126,198.399 L283.294,198.399 L283.294,205.78 C283.294,207.22 283.081,208.382 282.655,209.271 C282.316,210.053 281.783,210.408 281.056,210.337 C280.788,210.301 280.54,210.093 280.31,209.711 C280.079,209.329 279.873,209.085 279.697,208.978 C279.305,208.746 278.928,208.547 278.563,208.378 C278.199,208.21 277.778,208.037 277.298,207.859 C276.818,207.681 276.419,207.521 276.098,207.379" id="Fill-41" fill="#1A1918" sketch:type="MSShapeGroup"></path>
                <path d="M370.458,185.316 C370.688,185.404 370.981,185.479 371.337,185.541 C371.693,185.603 371.993,185.684 372.244,185.781 C372.492,185.879 372.722,186.044 372.936,186.274 C373.007,186.435 373.016,186.55 372.962,186.621 C372.91,186.692 372.807,186.808 372.656,186.967 C372.505,187.127 372.411,187.269 372.377,187.393 C372.252,187.766 372.004,188.619 371.63,189.952 L373.016,189.952 C373.105,189.881 373.215,189.751 373.35,189.565 C373.483,189.378 373.607,189.241 373.723,189.153 C373.837,189.063 373.976,189.037 374.134,189.072 C374.88,189.286 375.494,189.845 375.974,190.752 C376.027,190.857 376.027,190.951 375.974,191.031 C375.92,191.112 375.828,191.2 375.694,191.298 C375.56,191.395 375.467,191.48 375.414,191.551 L375.414,198.186 C375.324,198.524 375.249,198.768 375.187,198.919 C375.125,199.07 375.015,199.221 374.854,199.371 C374.694,199.523 374.482,199.607 374.216,199.625 C373.895,199.607 373.628,199.429 373.416,199.092 L370.512,199.092 C370.777,199.199 371.119,199.31 371.536,199.425 C371.955,199.54 372.31,199.669 372.604,199.812 C372.896,199.954 373.166,200.157 373.416,200.425 C373.504,200.601 373.526,200.736 373.483,200.824 C373.438,200.914 373.335,201.051 373.176,201.237 C373.016,201.424 372.91,201.579 372.857,201.703 L372.857,202.022 L379.651,202.022 C379.847,201.846 380.113,201.516 380.451,201.036 C380.788,200.558 381.081,200.273 381.33,200.185 C381.454,200.202 381.6,200.264 381.769,200.371 C381.939,200.477 382.125,200.629 382.329,200.824 C382.533,201.019 382.715,201.201 382.875,201.37 C383.036,201.54 383.231,201.752 383.462,202.009 C383.692,202.267 383.861,202.459 383.968,202.582 C384.075,202.813 384.048,203 383.887,203.143 C383.728,203.285 383.514,203.355 383.248,203.355 L374.055,203.355 L375.015,204.022 C376.436,204.98 377.235,205.514 377.413,205.621 C378.372,206.153 379.225,206.553 379.971,206.819 C380.415,206.98 380.837,207.113 381.237,207.22 C381.636,207.325 382.089,207.437 382.596,207.552 C383.102,207.668 383.533,207.769 383.887,207.859 C383.658,208.001 383.373,208.161 383.036,208.339 C382.698,208.515 382.4,208.684 382.143,208.845 C381.885,209.005 381.613,209.182 381.33,209.378 C381.24,209.449 381.117,209.618 380.957,209.884 C380.797,210.15 380.627,210.275 380.451,210.257 C380.273,210.24 380.108,210.213 379.958,210.178 C379.806,210.142 379.651,210.084 379.491,210.004 C379.332,209.925 379.208,209.857 379.118,209.805 C379.03,209.751 378.891,209.653 378.705,209.511 C378.518,209.368 378.38,209.271 378.292,209.218 C376.516,208.009 375.129,206.918 374.134,205.94 C373.691,205.514 373.264,205.008 372.857,204.421 L372.857,209.857 C372.767,210.195 372.692,210.44 372.63,210.59 C372.567,210.742 372.456,210.892 372.297,211.044 C372.137,211.194 371.924,211.278 371.657,211.297 C371.177,211.261 370.777,210.781 370.458,209.857 L370.458,204.208 C369.498,205.008 368.805,205.559 368.379,205.861 C366.638,207.087 365.252,207.992 364.223,208.579 C363.636,208.898 362.596,209.351 361.104,209.938 L359.265,210.497 C359.638,210.213 360.097,209.884 360.639,209.511 C361.179,209.138 361.664,208.796 362.09,208.485 C362.517,208.174 362.961,207.833 363.423,207.46 C364.613,206.5 365.652,205.54 366.54,204.581 C366.825,204.279 367.136,203.871 367.473,203.355 L359.745,203.355 L359.745,202.022 L370.458,202.022 L370.458,199.092 L369.792,199.092 C369.614,199.251 369.383,199.349 369.099,199.385 C368.619,199.349 368.219,198.869 367.899,197.946 L367.899,189.153 C368.167,189.277 368.516,189.401 368.951,189.526 C369.387,189.65 369.676,189.738 369.818,189.792 C369.96,189.046 370.066,188.433 370.139,187.953 L370.458,185.316 L370.458,185.316 Z M364.062,185.794 C364.276,185.991 364.564,186.203 364.928,186.435 C365.292,186.666 365.595,186.891 365.835,187.114 C366.075,187.337 366.283,187.616 366.461,187.953 C366.514,188.077 366.495,188.18 366.407,188.259 C366.318,188.34 366.176,188.42 365.981,188.499 C365.786,188.579 365.652,188.664 365.582,188.752 C365.048,189.356 364.382,190.183 363.582,191.23 C363.423,191.444 363.245,191.701 363.05,192.004 C363.192,192.235 363.342,192.509 363.503,192.829 C363.84,193.54 364.026,194.001 364.062,194.216 C364.24,193.825 364.399,193.47 364.542,193.15 L365.421,190.831 C365.599,190.973 365.835,191.129 366.128,191.298 C366.42,191.466 366.669,191.635 366.874,191.804 C367.078,191.973 367.26,192.181 367.421,192.43 C367.473,192.52 367.473,192.608 367.421,192.696 C367.367,192.786 367.273,192.878 367.14,192.977 C367.007,193.073 366.913,193.159 366.859,193.229 C366.701,193.478 366.394,193.945 365.942,194.629 C365.488,195.313 365.102,195.885 364.782,196.347 C364.497,196.738 364.186,197.156 363.85,197.6 C365.235,197.564 365.989,197.547 366.114,197.547 C366.131,197.422 366.141,197.289 366.141,197.146 L366.141,195.628 C366.265,195.806 366.42,196.014 366.607,196.254 C366.793,196.494 366.953,196.717 367.087,196.921 C367.22,197.124 367.331,197.36 367.421,197.626 C367.704,198.496 367.757,199.27 367.579,199.945 C367.473,200.371 367.153,200.584 366.621,200.584 C366.105,200.584 365.811,200.344 365.741,199.864 C365.706,199.615 365.706,199.358 365.741,199.092 C363.893,199.411 362.614,199.643 361.904,199.784 C361.814,199.803 361.708,199.861 361.584,199.958 C361.46,200.056 361.366,200.118 361.304,200.144 C361.241,200.171 361.149,200.157 361.025,200.104 C360.759,199.874 360.532,199.625 360.345,199.358 C360.159,199.092 359.972,198.781 359.786,198.426 C359.599,198.07 359.426,197.778 359.265,197.547 L360.465,197.626 L362.596,197.626 C362.898,196.863 363.147,196.25 363.342,195.787 L363.529,195.361 C363.387,195.361 363.245,195.343 363.104,195.309 C362.729,195.219 362.41,194.953 362.144,194.509 C361.966,194.207 361.82,193.922 361.704,193.656 C361.589,193.388 361.468,193.069 361.344,192.696 C361.22,192.323 361.113,192.021 361.025,191.791 L360.225,189.712 C360.403,189.836 360.624,189.974 360.892,190.125 C361.158,190.276 361.398,190.422 361.61,190.565 C361.824,190.707 362.028,190.876 362.223,191.071 L362.277,191.125 C362.454,190.822 362.596,190.538 362.703,190.272 C362.969,189.633 363.263,188.78 363.582,187.713 C363.653,187.5 363.711,187.296 363.756,187.101 C363.8,186.905 363.854,186.683 363.916,186.435 C363.979,186.186 364.026,185.972 364.062,185.794 L364.062,185.794 Z M370.645,191.284 C370.467,191.498 370.351,191.667 370.297,191.791 L370.297,193.976 L373.016,193.976 L373.016,191.284 L370.645,191.284 L370.645,191.284 Z M370.297,197.759 L373.015,197.759 L373.015,195.308 L370.297,195.308 L370.297,197.759 Z M379.411,186.274 C379.624,186.435 379.9,186.608 380.237,186.795 C380.575,186.981 380.867,187.168 381.117,187.354 C381.365,187.541 381.596,187.766 381.81,188.034 C381.863,188.104 381.863,188.175 381.81,188.246 C381.757,188.317 381.663,188.392 381.529,188.473 C381.396,188.553 381.304,188.619 381.25,188.673 C381.037,188.939 380.783,189.255 380.49,189.618 C380.198,189.982 379.926,190.308 379.677,190.591 C379.429,190.876 379.154,191.169 378.852,191.47 C378.674,191.648 378.488,191.8 378.292,191.924 L378.372,192.03 C378.408,192.083 378.514,192.213 378.692,192.417 C378.869,192.621 378.985,192.75 379.039,192.803 C379.092,192.857 379.18,192.968 379.305,193.136 C379.429,193.305 379.519,193.433 379.572,193.523 C379.624,193.611 379.691,193.727 379.771,193.869 C379.851,194.012 379.917,194.153 379.971,194.295 L381.09,192.19 L381.889,190.591 C382.031,190.822 382.222,191.084 382.462,191.378 C382.702,191.671 382.906,191.946 383.075,192.203 C383.244,192.462 383.381,192.75 383.488,193.069 C383.523,193.159 383.514,193.238 383.462,193.309 C383.409,193.38 383.319,193.452 383.195,193.523 C383.071,193.594 382.982,193.656 382.929,193.71 C382.734,193.922 382.346,194.308 381.769,194.868 C381.192,195.429 380.726,195.92 380.37,196.347 C380.05,196.72 379.66,197.244 379.197,197.92 C379.572,197.883 380.1,197.831 380.783,197.759 C381.467,197.688 381.934,197.645 382.183,197.626 C382.2,197.519 382.209,197.414 382.209,197.307 C382.209,197.111 382.183,196.934 382.129,196.773 C382.076,196.614 382.005,196.432 381.917,196.227 C381.827,196.023 381.765,195.851 381.729,195.708 C381.926,195.92 382.179,196.157 382.489,196.413 C382.8,196.672 383.062,196.921 383.276,197.16 C383.488,197.399 383.666,197.688 383.808,198.026 C384.093,198.736 383.986,199.429 383.488,200.104 C383.257,200.406 382.912,200.327 382.449,199.864 C382.218,199.634 382.076,199.368 382.022,199.065 C380.441,199.385 379.332,199.625 378.692,199.784 C378.567,199.821 378.421,199.904 378.252,200.037 C378.083,200.171 377.958,200.26 377.879,200.305 C377.799,200.348 377.669,200.335 377.493,200.264 C377.208,200.051 376.987,199.816 376.826,199.558 C376.666,199.3 376.507,198.985 376.346,198.612 C376.187,198.239 376.036,197.937 375.894,197.706 C375.929,197.724 376.08,197.782 376.346,197.879 C376.614,197.977 376.835,198.026 377.013,198.026 C377.333,198.026 377.643,198.018 377.945,197.999 L377.892,197.946 L378.825,196.374 C378.612,196.267 378.355,195.965 378.052,195.468 C377.875,195.184 377.737,194.792 377.639,194.295 C377.542,193.798 377.465,193.47 377.413,193.309 C377.306,193.007 377.204,192.719 377.107,192.443 C377.009,192.168 376.897,191.862 376.773,191.524 C376.649,191.187 376.542,190.902 376.454,190.671 C376.488,190.689 376.835,190.902 377.493,191.311 C377.866,190.778 378.132,190.351 378.292,190.032 C378.559,189.517 378.825,188.797 379.092,187.873 L379.411,186.274 L379.411,186.274 Z" id="Fill-42" fill="#1A1918" sketch:type="MSShapeGroup"></path>
                <path d="M454.079,186.754 L470.867,186.754 C470.955,186.683 471.066,186.555 471.199,186.368 C471.332,186.182 471.457,186.044 471.572,185.955 C471.688,185.866 471.825,185.839 471.986,185.875 C472.732,186.088 473.345,186.647 473.825,187.554 C473.878,187.661 473.878,187.753 473.825,187.833 C473.771,187.914 473.677,188.002 473.544,188.1 C473.411,188.197 473.317,188.282 473.265,188.353 L473.265,209.537 C473.175,209.876 473.1,210.12 473.038,210.27 C472.976,210.421 472.865,210.573 472.706,210.723 C472.545,210.875 472.331,210.958 472.065,210.977 C471.656,210.941 471.319,210.613 471.053,209.991 L454.398,209.991 L454.398,210.017 C454.309,210.354 454.234,210.599 454.171,210.75 C454.109,210.901 453.998,211.052 453.839,211.203 C453.679,211.355 453.466,211.439 453.198,211.456 C452.72,211.421 452.319,210.941 452,210.017 L452,186.034 C452.266,186.159 452.63,186.287 453.093,186.42 C453.554,186.555 453.882,186.666 454.079,186.754 L454.079,186.754 Z M454.825,188.086 C454.594,188.37 454.452,188.566 454.398,188.673 L454.398,208.658 L461.247,208.658 C461.157,208.481 461.06,208.241 460.954,207.938 L460.954,203.621 C460.083,204.493 459.337,205.105 458.715,205.46 C457.826,205.94 456.84,206.287 455.757,206.5 C456.628,205.807 457.374,205.115 457.995,204.421 C458.493,203.889 459.106,203.089 459.834,202.022 C459.993,201.793 460.19,201.482 460.42,201.09 L459.461,201.09 C459.284,201.463 458.981,201.668 458.555,201.703 C458.075,201.668 457.676,201.188 457.356,200.264 L457.356,195.174 C457.622,195.3 458,195.433 458.488,195.575 C458.977,195.716 459.329,195.841 459.541,195.948 L465.27,195.948 C465.359,195.877 465.47,195.748 465.603,195.561 C465.737,195.375 465.86,195.238 465.976,195.148 C466.091,195.06 466.23,195.032 466.389,195.069 C467.135,195.281 467.748,195.841 468.229,196.747 C468.282,196.854 468.282,196.947 468.229,197.026 C468.175,197.107 468.082,197.195 467.948,197.293 C467.815,197.39 467.722,197.476 467.669,197.547 L467.669,200.104 C467.526,200.637 467.384,200.993 467.242,201.171 C467.277,201.206 467.358,201.281 467.482,201.396 C467.607,201.512 467.695,201.593 467.748,201.636 C467.802,201.681 467.877,201.752 467.975,201.85 C468.072,201.947 468.153,202.037 468.215,202.116 C468.278,202.196 468.348,202.29 468.428,202.395 C468.509,202.502 468.575,202.618 468.627,202.742 C468.664,202.813 468.646,202.867 468.575,202.903 C468.503,202.938 468.391,202.965 468.241,202.982 C468.091,203 467.98,203.027 467.909,203.062 C467.464,203.364 466.904,203.773 466.23,204.288 C466.425,204.341 466.7,204.417 467.056,204.515 C467.411,204.612 467.669,204.688 467.828,204.74 C467.935,204.777 468.627,204.963 469.907,205.301 C469.782,205.407 469.6,205.585 469.36,205.833 C469.12,206.082 468.904,206.277 468.708,206.42 C468.636,206.491 468.543,206.584 468.428,206.699 C468.312,206.815 468.22,206.903 468.149,206.967 C468.077,207.028 467.984,207.087 467.868,207.139 C467.753,207.192 467.633,207.22 467.508,207.22 C467.313,207.22 467.14,207.171 466.989,207.072 C466.838,206.976 466.678,206.85 466.509,206.699 C466.34,206.549 466.194,206.429 466.07,206.339 L463.832,204.821 L463.352,204.502 L463.352,207.938 C463.262,208.277 463.183,208.515 463.112,208.658 L470.867,208.658 L470.867,188.086 L464.151,188.086 C464.239,188.175 464.321,188.263 464.391,188.353 C464.462,188.548 464.475,188.686 464.43,188.767 C464.387,188.846 464.289,188.979 464.138,189.166 C463.987,189.352 463.885,189.508 463.832,189.633 L463.832,190.218 L465.431,190.218 C465.821,189.667 466.23,189.312 466.655,189.153 C467.082,189.312 467.633,189.854 468.308,190.778 C468.415,191.009 468.391,191.195 468.241,191.337 C468.091,191.48 467.881,191.551 467.615,191.551 L463.832,191.551 L463.832,193.309 L467.482,193.309 C467.873,192.758 468.282,192.403 468.708,192.244 C469.135,192.403 469.684,192.945 470.361,193.869 C470.466,194.1 470.445,194.286 470.293,194.428 C470.142,194.571 469.934,194.642 469.667,194.642 L455.517,194.642 L455.517,193.309 L461.433,193.309 L461.433,191.551 L456.876,191.551 L456.876,190.218 L461.433,190.218 L461.433,188.086 L454.825,188.086 L454.825,188.086 Z M460.128,197.28 C459.931,197.51 459.807,197.688 459.755,197.813 L459.755,199.758 L465.27,199.758 L465.27,197.28 L460.128,197.28 L460.128,197.28 Z M465.723,201.09 L463.005,201.09 L462.846,201.304 C463.272,201.463 463.627,201.703 463.911,202.022 C463.965,202.095 463.999,202.161 464.018,202.223 C464.036,202.286 464.023,202.352 463.978,202.423 C463.933,202.494 463.894,202.556 463.858,202.609 C463.822,202.663 463.765,202.734 463.684,202.822 C463.605,202.912 463.547,202.982 463.512,203.036 C464.081,203.355 464.507,203.578 464.79,203.702 C465.128,203.222 465.421,202.796 465.669,202.423 C465.866,202.121 466.052,201.81 466.23,201.49 C466.052,201.42 465.883,201.287 465.723,201.09 L465.723,201.09 Z" id="Fill-43" fill="#1A1918" sketch:type="MSShapeGroup"></path>
            </g>
        </g>
    </g>
</svg>